<?xml version="1.0" standalone="no"?><svg xmlns="http://www.w3.org/2000/svg" viewBox="0 0 1440 320"><path fill="#bb0d0d" fill-opacity="1" d="M0,160L24,133.3C48,107,96,53,144,64C192,75,240,149,288,181.3C336,213,384,203,432,218.7C480,235,528,277,576,256C624,235,672,149,720,138.7C768,128,816,192,864,208C912,224,960,192,1008,176C1056,160,1104,160,1152,176C1200,192,1248,224,1296,245.3C1344,267,1392,277,1416,282.7L1440,288L1440,0L1416,0C1392,0,1344,0,1296,0C1248,0,1200,0,1152,0C1104,0,1056,0,1008,0C960,0,912,0,864,0C816,0,768,0,720,0C672,0,624,0,576,0C528,0,480,0,432,0C384,0,336,0,288,0C240,0,192,0,144,0C96,0,48,0,24,0L0,0Z"></path></svg>