<?xml version="1.0" standalone="no"?><svg xmlns="http://www.w3.org/2000/svg" viewBox="0 0 1440 320"><path fill="#bb0d0d" fill-opacity="1" d="M0,160L24,133.3C48,107,96,53,144,64C192,75,240,149,288,181.3C336,213,384,203,432,218.7C480,235,528,277,576,256C624,235,672,149,720,138.7C768,128,816,192,864,208C912,224,960,192,1008,176C1056,160,1104,160,1152,176C1200,192,1248,224,1296,245.3C1344,267,1392,277,1416,282.7L1440,288L1440,320L1416,320C1392,320,1344,320,1296,320C1248,320,1200,320,1152,320C1104,320,1056,320,1008,320C960,320,912,320,864,320C816,320,768,320,720,320C672,320,624,320,576,320C528,320,480,320,432,320C384,320,336,320,288,320C240,320,192,320,144,320C96,320,48,320,24,320L0,320Z"></path></svg>